#!OML:ASF I:\Random Stuff\random\construction\7_22_03\Session 2\subj1.ASF
:FULLY-SPECIFIED
:DEGREES
401
root 5.67918 17.6702 -7.22363 7.31099 -51.6739 -1.14866
lowerback -0.586281 0.489754 -0.270145
upperback -1.10796 0.652577 0.363271
thorax -0.812291 0.328885 0.522132
lowerneck -13.4246 -2.93468 -5.4231
upperneck 15.1869 -4.99062 11.2392
head 7.29562 -1.76397 4.05993
rclavicle -3.96319e-014 1.13183e-014
rhumerus -33.1422 37.013 -100.402
rradius 97.523
rwrist -9.09134
rhand -38.74 36.0998
rfingers 7.12502
rthumb -11.7529 6.44953
lclavicle -3.96319e-014 1.13183e-014
lhumerus -13.6989 -45.9866 92.4988
lradius 111.781
lwrist -11.9051
lhand -31.8951 76.9048
lfingers 7.12502
lthumb -5.14747 253.178
rfemur 1.24738 12.583 22.3637
rtibia 4.06092
rfoot -18.454 -39.5885
rtoes 29.3501
lfemur -14.8505 -14.1287 -15.2106
ltibia 22.4816
lfoot -12.881 19.9887
ltoes -27.4337
402
root 5.67345 17.6715 -7.21883 7.2755 -51.662 -1.09785
lowerback -0.59096 0.536217 -0.219872
upperback -1.11598 0.714153 0.299069
thorax -0.81711 0.359007 0.428185
lowerneck -13.2786 -3.01267 -5.39586
upperneck 14.9036 -5.11946 11.4425
head 7.19578 -1.81823 4.10543
rclavicle -8.88571e-014 8.2154e-016
rhumerus -33.062 36.6161 -100.338
rradius 97.6478
rwrist -10.0311
rhand -39.0557 35.7304
rfingers 7.12502
rthumb -12.0573 6.09781
lclavicle -8.88571e-014 8.2154e-016
lhumerus -13.9793 -45.5084 92.7054
lradius 112.134
lwrist -10.2026
lhand -32.1877 76.8095
lfingers 7.12502
lthumb -5.42995 253.28
rfemur 1.2231 12.5253 22.3307
rtibia 4.11015
rfoot -18.2817 -39.6379
rtoes 29.0525
lfemur -14.7977 -14.1925 -15.2449
ltibia 22.4082
lfoot -12.9491 20.0116
ltoes -27.0431
403
root 5.66939 17.6735 -7.21432 7.23992 -51.6409 -1.0444
lowerback -0.596046 0.585632 -0.212431
upperback -1.11104 0.779926 0.271403
thorax -0.809327 0.391712 0.395702
lowerneck -12.9714 -3.14686 -5.49079
upperneck 14.3309 -5.29743 11.7757
head 6.98664 -1.90487 4.20632
rclavicle -1.70842e-014 -5.69332e-015
rhumerus -32.8716 36.1463 -100.043
rradius 97.8873
rwrist -10.4329
rhand -39.352 35.5248
rfingers 7.12502
rthumb -12.3431 5.90918
lclavicle -1.70842e-014 -5.69332e-015
lhumerus -14.2965 -44.9339 92.9392
lradius 112.466
lwrist -8.67831
lhand -31.9113 76.5174
lfingers 7.12502
lthumb -5.16304 253.565
rfemur 1.16577 12.4577 22.293
rtibia 4.21544
rfoot -18.2135 -39.654
rtoes 28.9447
lfemur -14.7509 -14.2013 -15.2873
ltibia 22.3303
lfoot -12.8113 20.0208
ltoes -27.2456
404
root 5.66481 17.6739 -7.20867 7.16435 -51.6489 -0.975627
lowerback -0.572406 0.603875 -0.256929
upperback -1.09549 0.804514 0.304259
thorax -0.807967 0.40452 0.454034
lowerneck -12.8471 -3.12733 -5.57132
upperneck 13.9356 -5.22005 11.8075
head 6.83395 -1.88194 4.23367
rclavicle 6.08444e-014 6.69656e-015
rhumerus -32.6883 35.8147 -99.632
rradius 98.2414
rwrist -10.2094
rhand -39.5438 35.487
rfingers 7.12502
rthumb -12.528 5.88262
lclavicle 6.08444e-014 6.69656e-015
lhumerus -14.6912 -44.1343 93.1891
lradius 112.744
lwrist -7.26055
lhand -31.7628 76.5432
lfingers 7.12502
lthumb -5.01973 253.536
rfemur 1.15559 12.4169 22.2373
rtibia 4.29611
rfoot -18.088 -39.6764
rtoes 28.6764
lfemur -14.6605 -14.28 -15.3529
ltibia 22.2557
lfoot -12.6421 20.0913
ltoes -27.845
405
root 5.65714 17.6743 -7.20452 7.08644 -51.6807 -0.897143
lowerback -0.551581 0.633787 -0.301333
upperback -1.0894 0.844445 0.304509
thorax -0.814455 0.424872 0.478881
lowerneck -12.5728 -3.23215 -5.71463
upperneck 13.3623 -5.33669 12.1044
head 6.62734 -1.94515 4.33758
rclavicle -4.06437e-014 2.03754e-015
rhumerus -32.4293 35.3686 -99.1735
rradius 98.7824
rwrist -9.65661
rhand -39.2695 35.2041
rfingers 7.12502
rthumb -12.2635 5.58366
lclavicle -4.06437e-014 2.03754e-015
lhumerus -15.1807 -43.3745 93.3891
lradius 112.95
lwrist -5.75277
lhand -31.756 76.7031
lfingers 7.12502
lthumb -5.0131 253.376
rfemur 1.14097 12.3995 22.1881
rtibia 4.38905
rfoot -17.9776 -39.7097
rtoes 28.3551
lfemur -14.5603 -14.3283 -15.4174
ltibia 22.1798
lfoot -12.65 20.1583
ltoes -28.0482
406
root 5.64981 17.6753 -7.20162 7.07218 -51.6842 -0.855607
lowerback -0.568455 0.642691 -0.324028
upperback -1.08822 0.856349 0.3046
thorax -0.804251 0.430983 0.491881
lowerneck -12.6337 -3.19096 -5.66277
upperneck 13.2582 -5.26189 12.0243
head 6.59421 -1.91249 4.30824
rclavicle 6.56036e-014 1.26974e-014
rhumerus -32.0118 34.8794 -98.6069
rradius 99.5273
rwrist -9.0577
rhand -39.2315 35.0766
rfingers 7.12502
rthumb -12.2269 5.45397
lclavicle 6.56036e-014 1.26974e-014
lhumerus -15.8353 -42.6373 93.6529
lradius 113.094
lwrist -4.11059
lhand -31.9545 76.3869
lfingers 7.12502
lthumb -5.20484 253.697
rfemur 1.04813 12.3574 22.1706
rtibia 4.54681
rfoot -17.8022 -39.7766
rtoes 27.7764
lfemur -14.5095 -14.3202 -15.4397
ltibia 22.0996
lfoot -12.7414 20.1537
ltoes -27.9361
407
root 5.6434 17.6773 -7.19854 7.08109 -51.6956 -0.826051
lowerback -0.608098 0.60182 -0.380393
upperback -1.08287 0.802259 0.366642
thorax -0.777646 0.404557 0.587526
lowerneck -12.463 -3.25989 -5.84617
upperneck 12.8418 -5.31088 12.1942
head 6.44711 -1.94784 4.38577
rclavicle -2.98891e-014 1.37161e-014
rhumerus -31.4608 34.6874 -97.9208
rradius 100.389
rwrist -8.31592
rhand -39.9353 34.7554
rfingers 7.12502
rthumb -12.9054 5.17447
lclavicle -2.98891e-014 1.37161e-014
lhumerus -16.6738 -41.7041 93.9906
lradius 113.21
lwrist -2.42992
lhand -32.0856 75.5173
lfingers 7.12502
lthumb -5.33133 254.57
rfemur 0.956807 12.3247 22.1412
rtibia 4.64258
rfoot -17.4452 -39.8586
rtoes 26.8896
lfemur -14.4795 -14.3387 -15.4513
ltibia 22.0339
lfoot -12.7336 20.1602
ltoes -27.9463
